PathFileType	4	(X/Y/Z)	pose_F01_0-74.trc
DataRate	CameraRate	NumFrames	NumMarkers	Units	OrigDataRate	OrigDataStartFrame	OrigNumFrames
30	30	11	21	m	30	0	74
Frame#	Time	CHip			RHip			RKnee			RAnkle			RBigToe			RSmallToe			RHeel			LHip			LKnee			LAnkle			LBigToe			LSmallToe			LHeel			Neck			Nose			RShoulder			RElbow			RWrist			LShoulder			LElbow			LWrist			
		X1	Y1	Z1	X2	Y2	Z2	X3	Y3	Z3	X4	Y4	Z4	X5	Y5	Z5	X6	Y6	Z6	X7	Y7	Z7	X8	Y8	Z8	X9	Y9	Z9	X10	Y10	Z10	X11	Y11	Z11	X12	Y12	Z12	X13	Y13	Z13	X14	Y14	Z14	X15	Y15	Z15	X16	Y16	Z16	X17	Y17	Z17	X18	Y18	Z18	X19	Y19	Z19	X20	Y20	Z20	X21	Y21	Z21	
0	0.0	-0.2436687474712711	1.8780417505368945	-0.5425661046898715	-0.2649831672616249	1.8782940228322986	-0.488544445504799	-0.2762393421389982	1.72196220962798	-0.481550843974563													-0.23456530234986273	1.8867050780295254	-0.6245100323040206	-0.21301587329952956	1.7331693932037397	-0.6158168846681693	-0.209408033395583	1.587415043072836	-0.6135761165379042	-0.20298059487569708	1.5528673295281183	-0.6925070504012991	-0.19322054168744043	1.5641869938560746	-0.7038213762640232	-0.20812713838328778	1.5772987483871739	-0.5837208350588281	-0.251222168001046	2.054954127407893	-0.5537853031513873	-0.25811743794337827	2.129639706069997	-0.579226680683481	-0.27358079286713705	2.051091258275853	-0.4714785038939087	-0.27576787252076096	1.9743385848655344	-0.4089588510914541	-0.319406577652383	1.952934984422482	-0.4461614729373406	-0.22555509050824468	2.0564858215360906	-0.6416038735579354	0.9978630480191746	2.0564587241162027	-1.927852097368812	-0.19007939678095662	1.8970953919525195	-0.7064351265703109
1	0.03333333333333333	-0.24702776504117419	1.8754459095336724	-0.5344489645399569	-0.26431311825481424	1.8741205195041355	-0.475813786566907	-0.2759812579502519	1.7190570601676582	-0.4815598022946803													-0.23232270181986223	1.8831489713620881	-0.6061084759188091	-0.21770838431767656	1.7317991282983314	-0.6193009989807892	-0.2072637403923421	1.5870268965418977	-0.6158757949138425	-0.20269387422500615	1.5541067256653174	-0.6930156163734145	-0.19318222965503898	1.564070439172832	-0.7038100803710162	-0.2089136878761562	1.576360586697354	-0.5874727173431787	-0.2524523124389133	2.0461241320302976	-0.5467443974092296	-0.2602487956614374	2.119120813271813	-0.5912083966153853	-0.27339271774885937	2.04205604575352	-0.4526415307049746	-0.2744580245565469	1.9585233919833802	-0.39381095624968476	-0.3205226634592681	1.935662655645757	-0.4292782347641562	-0.22778102297857378	2.050257359337371	-0.6380060270421418	-0.2052296876194184	1.9636419098286548	-0.6557390497577222	-0.1945993946558492	1.8940335438975566	-0.7014497299161833
2	0.06666666666666667	-0.2503867826110773	1.8728500685304503	-0.5263318243900423	-0.26364306924800357	1.8699470161759724	-0.463083127629015	-0.2757231737615056	1.7161519107073364	-0.48156876061479764													-0.23008010128986173	1.879592864694651	-0.5877069195335977	-0.22240089533582355	1.730428863392923	-0.622785113293409	-0.2051194473891012	1.5866387500109593	-0.6181754732897807	-0.2024071535743152	1.5553461218025164	-0.6935241823455298	-0.19314391762263752	1.5639538844895893	-0.7037987844780093	-0.2097002373690246	1.5754224250075342	-0.5912245996275294	-0.2536824568767806	2.037294136652702	-0.539703491667072	-0.2623801533794965	2.108601920473629	-0.6031901125472895	-0.2732046426305817	2.033020833231187	-0.43380455751604047	-0.2731481765923328	1.942708199101226	-0.37866306140791545	-0.3216387492661532	1.918390326869032	-0.41239499659097184	-0.23000695544890287	2.0440288971386518	-0.6344081805263483	-1.4083224232580114	1.8708250955411068	0.6163739978533676	-0.19911939253074176	1.8909716958425937	-0.6964643332620556
3	0.1	-0.24916783804483023	1.8691446553942583	-0.5223453383130392	-0.2622103476152759	1.8669245776824803	-0.45070048639490723	-0.2760546490318525	1.7121278529907498	-0.48093112190207854													-0.22987616891238247	1.8722609542908646	-0.5865185528978908	-0.22681219868407348	1.726095154268174	-0.6305295066982671	-0.2050989459435942	1.5865952210986018	-0.618071526678834	-0.20266543936461873	1.5540235381223255	-0.6929539863915034	-0.19340792273040613	1.562469080214164	-0.7032273561435683	-0.2067432849811617	1.5762519114617313	-0.5896875819801636	-0.24980805735233694	2.034012323577571	-0.5261716867292332	-0.265579275365155	2.1000797162167704	-0.6016457443560649	-0.27284288708530097	2.0289733844541353	-0.4236095662127545	-0.2718035973278985	1.9344127121274035	-0.3813537959747535	-0.321024659545451	1.9077774021155638	-0.39307132406917095	-0.22904381229738133	2.041254729887771	-0.6303618488919254	-1.4123936812973508	1.8659214609572916	0.6257742048916756	-0.2045667987414703	1.8873314638138914	-0.6861089433335766
4	0.13333333333333333	-0.24793473533570978	1.8729131105724586	-0.519595125770189	-0.25911217963461486	1.869847642771284	-0.45008199240096697	-0.27476859351102756	1.714240336063893	-0.4796956249106969													-0.22951308337833048	1.8746204092081578	-0.5866858201875947	-0.22843840897152023	1.7239008924904216	-0.6368153654427255	-0.20539201191581702	1.5855571958081975	-0.6176444669308738	-0.20248230939445191	1.5556565229195571	-0.6935185209601105	-0.19322405067525503	1.564181606927448	-0.7037778135242736	-0.20784451287219524	1.5766766800616367	-0.5933006299121872	-0.25051858416886624	2.034509102555158	-0.5202914098239508	-0.27058277567163	2.095533346931939	-0.5980441075801702	-0.27277725904804023	2.027782791012462	-0.4230487298912135	-0.26797743690799775	1.9419476230257608	-0.37904726670523686	-0.30472251338739126	1.9036006167580366	-0.3629593768563598	-0.22604580354927348	2.0426926383038886	-0.620506663752077	-1.4112862181917467	1.8628355875897988	0.6229819944436824	-0.20816364443124089	1.8807740340224877	-0.6775956776764069
5	0.16666666666666666	-0.24779871391881733	1.8718165829678057	-0.5193721669599568	-0.25883259675578874	1.8670344114454938	-0.44964124336907296	-0.27348253799020256	1.716352819137036	-0.4784601279193153													-0.23042403092757296	1.8751948094201438	-0.5817418856677303	-0.22946525171697013	1.7255919276285834	-0.6318908101749439	-0.2053171219115359	1.5849605901386192	-0.6175992811076911	-0.19953088906016941	1.5538996029027101	-0.6920002416375427	-0.19242888723656912	1.5622020658137865	-0.7000807637917076	-0.20774984075308972	1.573574118379239	-0.5926986701054047	-0.2473745490913233	2.0369359454445344	-0.5192558788951791	-0.27357890236899995	2.0945000272417866	-0.589516978819406	-0.2696874569239405	2.0299088642883727	-0.42190033486215467	-0.26555157355732306	1.9424889447864206	-0.3805787638255724	-0.30184608241088406	1.9255629007619386	-0.3832224101687012	-0.22584206087289485	2.044067396981319	-0.6204292081724333	-1.4117398841335158	1.8647460978594073	0.6241655397721813	-0.2055938618860254	1.8824688705054844	-0.6796305295573204
6	0.2	-0.248474862267142	1.877789881507037	-0.5235854710673096	-0.25966591884756923	1.875670985624688	-0.4541098514671602	-0.2721964824693776	1.718465302210179	-0.47722463092793366													-0.22906266719271817	1.8824605474446414	-0.5877382415862002	-0.22795478826037613	1.7302991422471747	-0.6295978901257145	-0.20681761873133758	1.5844096819577131	-0.6162578081241776	-0.19948884005577536	1.5538974123514018	-0.6920710785147026	-0.19215052568728586	1.5635211408809058	-0.7006623629232994	-0.20955109369352326	1.5745129154811996	-0.5911987294489857	-0.24516680343840336	2.040662373667025	-0.5216008762420765	-0.2785052181248628	2.0971472863297973	-0.5802949037280248	-0.26728817982889713	2.035932671282191	-0.4241401870166541	-0.27087016302545863	1.9462071734601216	-0.3810605148869804	-0.29896965143437687	1.9475251847658406	-0.4034854434810425	-0.22274864223138094	2.045611523869294	-0.6193716997570096	-1.4137905661113688	1.8676669859794013	0.6263316786886054	-0.20208454607179804	1.8847869163756308	-0.6790834881321961
7	0.23333333333333334	-0.24535951985422216	1.880688729746801	-0.531384836056635	-0.25964777232427516	1.8780608364554152	-0.4628679229940433	-0.27091042694855266	1.7205777852833222	-0.47598913393655207													-0.22715562736055725	1.8855714611238188	-0.5904200192088352	-0.2232842703670553	1.7321398096728524	-0.6220473864078482	-0.207203778558909	1.5863925680410034	-0.6159740363231007	-0.19727030198065953	1.5541277873581065	-0.6943574531157652	-0.1902741725266299	1.5623860987711884	-0.7023629101819234	-0.20976310374243026	1.575598585512315	-0.5908533992253175	-0.24305769899494672	2.042234203927106	-0.5237528004937961	-0.2737507606889169	2.0993056858589108	-0.5653165695475436	-0.2633565215510598	2.0375573448968165	-0.42843898000008335	-0.2715163992543382	1.9483121837119726	-0.37572190445716624	-0.2960932204578696	1.9694874687697426	-0.42374847679338384	-0.2197872730929007	2.046784046781862	-0.6190465678944961	-1.4277227465868285	1.871703616222992	0.6480322200887364	-0.20173423839746316	1.8918713086948815	-0.6769629476087592
8	0.26666666666666666	-0.24370583853777347	1.878509731706958	-0.5336501366841493	-0.26181382586773566	1.8768159817923993	-0.4694138823340405	-0.26962437142772766	1.7226902683564653	-0.4747536369451704													-0.22716192780691175	1.883251430012297	-0.5986439831633702	-0.22230184833668046	1.7295330890123726	-0.6185466321616426	-0.2071276313611331	1.5834178602619515	-0.615633230844288	-0.19732301110998945	1.5541844722528775	-0.694320112006266	-0.1924114909138818	1.5622997371626464	-0.7001732271605411	-0.20988299871957433	1.5734080065807097	-0.5908243772719697	-0.24298323203941466	2.0452988961094647	-0.5249624299607796	-0.2745230520446092	2.1017833266818573	-0.5604516459922837	-0.2633732158419071	2.0402227845304224	-0.4296108595368571	-0.2781949010594995	1.954108484593588	-0.3816867619296579	-0.2932167894813624	1.9914497527736446	-0.44401151010572515	-0.2173550421657233	2.051771705658043	-0.6309744684008074	-1.4139231825507872	1.8736293735436174	0.621846382413162	-0.19828734029733014	1.8918493754073837	-0.6848758559405161
9	0.3	-0.24223418870061691	1.8813752489725957	-0.5393377746366343	-0.2605611675957718	1.8790330658336285	-0.4751276832825155	-0.2683383159069027	1.7248027514296085	-0.47351813995378883													-0.22652730216948716	1.8857456362566982	-0.607765462647683	-0.2197902962662904	1.7292840945135786	-0.621075730682151	-0.20521252557533964	1.5845990718838774	-0.6175348783192963	-0.19847642023088233	1.5528958541886793	-0.6969004216635822	-0.19026305738669733	1.5622828123344907	-0.7023334096343707	-0.20684774908465714	1.5736706744421025	-0.5894598896771954	-0.23793494080275737	2.0502132723062108	-0.535938773812611	-0.27342522441416506	2.104590821354724	-0.5577620570358889	-0.25462385518817726	2.0468794610972125	-0.44497807096010833	-0.2789818339905434	1.9636980208006327	-0.38620382044821294	-0.29034035850485523	2.0134120367775465	-0.4642745434180665	-0.2151982937670065	2.055351935093809	-0.6339818661740871	-1.414188737030046	1.875723932279698	0.6226974000848826	-0.19473167111690384	1.8922510442972824	-0.6924604420980289
10	0.3333333333333333	-0.24266633854742486	1.8842262527843125	-0.5399697841759203	-0.2610268203771356	1.881414090442778	-0.47573987971399473	-0.2670522603860777	1.7269152345027516	-0.4722826429624072													-0.22580277661102344	1.8879820792819026	-0.6136917532397062	-0.2201043428031164	1.7351267493818308	-0.6212298456258846	-0.20702636952246964	1.5859601707891198	-0.6158515158973759	-0.19728626572331281	1.5543106587140336	-0.694368692190847	-0.19023909674201317	1.5624322309647276	-0.70237251795068	-0.2078499315372081	1.572844064115402	-0.5843009641869841	-0.2358460900015501	2.053211952108429	-0.5468990708594962	-0.2723073071026884	2.1085762270749435	-0.5556551432197043	-0.25369019942115334	2.0495536588416483	-0.4507832053507084	-0.2820746241603267	1.9716580411669036	-0.3973912708826512	-0.2936174007885845	2.0299648814596156	-0.48550937746685824	-0.21584096083260856	2.0556959046432435	-0.6454924596819167	-1.3941416415284893	1.8743019834395735	0.5893050991517123	-0.19407968541257878	1.8939867700853814	-0.7012209182511685
